<?xml version="1.0" standalone="no"?>
<!DOCTYPE svg PUBLIC "-//W3C//DTD SVG 20010904//EN"
 "http://www.w3.org/TR/2001/REC-SVG-20010904/DTD/svg10.dtd">
<svg version="1.0" xmlns="http://www.w3.org/2000/svg"
 width="1123.000000pt" height="1123.000000pt" viewBox="0 0 1123.000000 1123.000000"
 preserveAspectRatio="xMidYMid meet">
<metadata>
Created by potrace 1.11, written by Peter Selinger 2001-2013
</metadata>
<g transform="translate(0.000000,1123.000000) scale(0.100000,-0.100000)"
fill="#000000" stroke="none">
<path d="M3869 11225 c-3 -2 -14 -6 -25 -8 -82 -14 -312 -116 -365 -163 -8 -8
-19 -14 -22 -14 -22 0 -207 -185 -207 -207 0 -3 -7 -14 -16 -24 -12 -13 -41
-104 -53 -164 -1 -3 -1 -6 -2 -7 0 -2 -2 -11 -4 -22 -2 -10 -9 -39 -15 -65
-19 -83 -47 -245 -55 -315 -4 -48 -18 -67 -53 -72 -32 -5 -95 -43 -217 -128
-71 -50 -132 -93 -135 -96 -3 -3 -31 -24 -63 -48 -224 -167 -402 -364 -482
-534 -39 -84 -73 -198 -71 -246 1 -17 -2 -32 -5 -32 -5 0 -3 -62 4 -135 5 -47
27 -125 39 -141 5 -7 11 -22 13 -34 5 -25 80 -175 95 -190 3 -3 17 -23 31 -45
42 -65 171 -204 208 -225 9 -5 14 -10 11 -12 -3 -2 -31 -21 -63 -41 -129 -84
-261 -231 -338 -377 -13 -25 -27 -46 -31 -48 -5 -2 -8 -12 -8 -22 0 -9 -7 -23
-15 -30 -8 -7 -15 -17 -15 -22 0 -8 -16 -46 -56 -135 -8 -17 -14 -38 -14 -47
0 -9 -4 -16 -8 -16 -5 0 -9 -6 -9 -12 0 -7 -14 -53 -31 -103 -38 -112 -92
-298 -92 -319 0 -9 -5 -16 -11 -16 -5 0 -8 -4 -5 -9 3 -5 -2 -33 -10 -62 -9
-30 -18 -65 -21 -79 -3 -14 -6 -29 -7 -35 -2 -5 -6 -23 -10 -40 -4 -16 -16
-59 -27 -95 -10 -36 -21 -81 -24 -100 -3 -19 -8 -47 -11 -62 -23 -136 -23
-420 0 -603 13 -102 52 -278 75 -337 6 -16 7 -28 4 -28 -4 0 -2 -5 5 -12 7 -7
12 -18 12 -26 0 -28 78 -214 93 -220 4 -2 7 -10 7 -18 0 -18 70 -133 120 -199
49 -63 132 -144 192 -186 18 -13 48 -38 66 -56 17 -18 32 -29 32 -25 0 4 4 2
8 -4 4 -6 50 -43 102 -82 52 -39 105 -80 117 -92 12 -11 24 -20 27 -20 3 0 45
-27 93 -59 49 -33 102 -65 119 -73 16 -7 31 -15 34 -18 7 -8 163 -82 177 -84
24 -4 25 -16 4 -59 -12 -25 -23 -53 -25 -63 -2 -11 -11 -39 -20 -64 -9 -25
-19 -52 -21 -61 -4 -19 -50 -140 -71 -186 -8 -17 -14 -34 -14 -38 0 -3 -18
-50 -41 -103 -22 -53 -56 -135 -76 -182 -19 -47 -41 -98 -48 -115 -8 -16 -20
-46 -29 -65 -21 -47 -127 -321 -132 -340 -26 -99 -56 -231 -59 -255 -30 -257
-24 -382 30 -625 5 -25 48 -146 66 -185 5 -11 20 -54 35 -95 24 -69 72 -178
84 -190 3 -3 14 -21 24 -40 83 -152 323 -378 501 -471 36 -19 65 -37 65 -40 0
-5 -148 -32 -250 -45 -45 -5 -84 -12 -130 -22 -25 -6 -63 -13 -86 -17 -22 -3
-55 -10 -73 -15 -17 -5 -34 -9 -36 -9 -3 -1 -6 -1 -7 -2 -2 0 -14 -2 -28 -4
-14 -2 -61 -13 -105 -25 -44 -12 -88 -23 -97 -25 -20 -4 -126 -35 -148 -43 -8
-3 -17 -6 -20 -7 -24 -6 -59 -18 -75 -25 -22 -10 -117 -44 -125 -46 -11 -2
-165 -70 -230 -102 -31 -15 -62 -42 -97 -85 -7 -9 -27 -43 -45 -77 -27 -53
-32 -73 -33 -135 0 -44 6 -83 15 -101 17 -33 71 -107 83 -112 4 -2 13 -9 20
-16 18 -18 115 -70 167 -88 87 -32 193 -47 301 -43 107 4 163 11 189 25 16 8
57 6 135 -9 50 -9 365 -7 430 3 230 37 378 73 665 162 80 25 152 48 160 51 8
3 20 7 25 9 6 1 55 17 110 34 179 57 261 78 291 73 37 -5 39 -5 104 2 30 4 63
7 73 8 9 1 17 5 17 10 0 4 4 6 9 3 9 -6 168 72 196 95 149 127 240 267 261
404 3 22 7 42 9 43 2 2 21 5 42 7 21 2 38 4 38 5 0 1 17 4 37 5 43 4 252 33
286 40 19 3 22 1 17 -15 -3 -10 -8 -27 -10 -37 -43 -183 -49 -206 -59 -263
-20 -104 -27 -298 -14 -370 4 -19 10 -51 14 -70 3 -19 10 -43 15 -52 5 -10 6
-18 2 -18 -4 0 -3 -4 3 -8 6 -4 21 -29 34 -57 24 -49 127 -162 185 -201 27
-18 123 -67 135 -69 3 0 10 -3 15 -6 8 -5 35 -14 75 -24 5 -1 69 -15 100 -21
86 -19 403 -25 515 -10 28 4 66 8 85 10 36 4 77 12 120 22 14 3 41 8 60 10 19
3 46 9 60 14 14 5 36 12 50 14 14 3 66 17 115 32 50 15 96 27 103 27 6 0 12 3
12 7 0 3 8 6 18 7 18 1 287 101 347 128 17 8 77 35 135 60 106 46 157 88 192
155 7 14 15 27 19 30 11 11 39 80 45 112 7 46 7 116 -1 158 -8 38 -59 146 -81
167 -8 8 -14 17 -14 21 0 7 -54 67 -132 149 -20 21 -62 61 -93 88 -112 99
-345 335 -345 350 0 2 -13 24 -30 48 -16 25 -30 49 -30 54 0 6 44 20 98 33
131 32 131 32 171 18 53 -17 146 -18 210 -1 40 10 124 16 291 18 129 2 249 6
265 9 92 15 112 20 148 34 16 7 31 12 34 12 3 0 18 9 34 21 16 11 29 18 29 15
0 -11 59 52 84 90 32 49 45 90 52 164 3 30 6 57 7 60 2 10 -25 85 -46 130 -37
75 -107 181 -172 259 -35 42 -39 47 -78 88 l-39 41 22 73 c12 41 23 81 24 89
1 9 5 20 8 25 7 13 15 49 43 200 8 44 17 98 19 120 3 22 7 58 10 80 15 116 19
223 20 442 1 134 -2 243 -5 243 -4 0 -7 15 -6 33 0 62 -13 214 -29 327 -4 25
-8 59 -9 75 -6 57 -17 130 -24 171 -4 22 -7 48 -5 57 1 9 -2 17 -7 17 -6 0 -9
6 -7 13 2 12 -10 116 -18 152 -3 11 -7 31 -9 45 -11 71 -18 96 -27 107 -6 7
-7 13 -3 13 5 0 1 8 -7 18 -9 9 -35 55 -59 102 -24 47 -46 87 -49 90 -3 3 -35
64 -70 135 -36 72 -69 133 -73 136 -5 3 -8 8 -6 10 1 2 -13 36 -31 74 -76 164
-73 152 -56 172 39 46 116 155 116 163 0 4 3 10 8 12 4 2 43 48 86 103 44 55
94 115 113 132 18 18 33 37 33 42 0 5 4 11 9 13 5 2 29 21 53 43 61 57 175
146 230 181 27 16 48 32 48 37 0 4 6 7 13 7 6 0 29 15 49 33 20 17 49 42 65
54 83 64 207 198 314 340 79 104 239 359 239 381 0 5 6 15 13 21 8 6 20 29 27
51 7 22 17 40 22 40 4 0 8 4 8 9 0 4 27 65 60 134 33 70 60 129 60 132 0 3 13
33 29 67 16 35 48 108 71 163 43 102 49 116 94 218 14 32 26 60 26 62 0 3 14
33 30 67 72 147 43 289 -58 289 -15 0 -38 -2 -52 -6 -14 -3 -30 -7 -35 -8 -19
-4 -120 -59 -203 -111 -45 -28 -90 -56 -100 -61 -42 -25 -107 -71 -110 -77 -2
-5 -8 -8 -13 -8 -5 0 -39 -19 -76 -41 -92 -57 -190 -100 -238 -106 -22 -2 -50
-14 -62 -25 -13 -12 -23 -18 -23 -15 0 4 -8 -1 -19 -10 -10 -10 -33 -29 -52
-43 -60 -46 -299 -274 -299 -286 0 -2 -38 -42 -85 -91 -47 -48 -93 -97 -103
-108 -21 -23 -123 -117 -173 -159 -46 -39 -165 -116 -178 -116 -6 0 -11 -4
-11 -10 0 -5 -5 -10 -10 -10 -13 0 -188 -85 -252 -122 l-48 -27 -1 27 c-1 15
-2 50 -4 77 -1 28 -5 115 -9 195 -14 298 -22 427 -30 515 -11 113 -16 151 -20
180 -3 17 -7 48 -10 70 -3 22 -8 51 -11 65 -3 14 -7 41 -10 60 -2 19 -5 36 -6
38 -2 3 -3 7 -12 52 -4 19 -9 67 -12 105 -5 69 -12 121 -19 160 -2 11 -7 43
-10 70 -4 28 -13 78 -21 111 -8 34 -16 73 -19 85 -2 13 -12 47 -20 74 -9 28
-16 53 -16 56 0 4 19 26 43 51 23 24 53 59 67 77 14 18 37 47 52 64 15 18 28
35 28 39 0 4 6 13 13 20 47 49 148 248 182 358 9 30 19 62 22 70 3 8 7 22 8
30 2 8 6 35 10 60 10 55 11 220 2 275 -15 89 -78 241 -118 284 -11 11 -19 24
-19 28 0 7 -61 65 -92 88 -27 19 -177 97 -253 130 -33 15 -69 31 -80 36 -40
18 -291 97 -329 103 -21 4 -42 9 -47 12 -5 2 -21 7 -36 9 -16 3 -35 6 -43 8
-16 4 -65 13 -115 22 -74 13 -101 17 -117 17 -10 0 -34 22 -53 49 -20 27 -42
49 -48 49 -5 0 -8 3 -4 6 6 6 -101 104 -114 104 -4 0 -14 6 -21 13 -27 27
-175 88 -273 113 -16 4 -32 8 -35 9 -3 1 -27 5 -55 10 -27 5 -52 10 -55 10
-56 12 -155 22 -309 31 -71 4 -116 11 -140 23 -37 19 -90 35 -103 33 -5 -1 -8
2 -8 8 0 9 -1172 15 -1181 5z m-1183 -3693 c1 -165 32 -304 83 -364 8 -10 11
-18 7 -18 -4 0 -1 -6 6 -14 7 -7 20 -24 28 -36 39 -59 150 -147 227 -180 12
-5 24 -20 27 -32 21 -111 49 -238 57 -258 5 -14 10 -34 12 -45 2 -11 7 -37 11
-57 5 -21 3 -50 -3 -70 -6 -18 -12 -37 -13 -43 -1 -5 -13 -39 -26 -75 -54
-144 -60 -164 -64 -218 -1 -12 -35 4 -68 35 -19 17 -87 71 -129 103 -77 57
-247 238 -275 292 -7 12 -19 34 -26 48 -8 14 -15 30 -16 35 -1 6 -9 42 -18 80
-15 68 -16 264 -2 340 3 17 8 41 10 55 3 14 5 25 6 25 1 0 3 9 4 20 2 11 7 36
11 55 5 19 10 38 11 43 1 4 2 8 4 10 1 1 3 9 5 17 1 8 11 42 21 75 10 33 19
63 20 68 1 4 3 9 4 12 1 3 3 9 4 14 0 5 4 13 9 17 4 4 7 16 7 26 0 10 4 18 8
18 4 0 8 8 9 18 1 15 41 112 46 112 1 0 2 -48 3 -108z"/>
</g>
</svg>
