<?xml version="1.0" standalone="no"?>
<!DOCTYPE svg PUBLIC "-//W3C//DTD SVG 20010904//EN"
 "http://www.w3.org/TR/2001/REC-SVG-20010904/DTD/svg10.dtd">
<svg version="1.0" xmlns="http://www.w3.org/2000/svg"
 width="640.000000pt" height="640.000000pt" viewBox="0 0 640.000000 640.000000"
 preserveAspectRatio="xMidYMid meet">
<metadata>
Created by potrace 1.11, written by Peter Selinger 2001-2013
</metadata>
<g transform="translate(0.000000,640.000000) scale(0.100000,-0.100000)"
fill="#000000" stroke="none">
<path d="M3380 6384 c-450 -56 -729 -230 -833 -520 -33 -92 -38 -142 -42 -404
-1 -118 -3 -218 -4 -221 0 -4 -16 -18 -34 -32 l-34 -25 -104 24 c-174 41 -224
39 -282 -15 -41 -37 -59 -86 -60 -162 -2 -73 18 -114 86 -179 l35 -33 -32 -46
c-111 -158 -218 -383 -292 -610 -32 -100 -38 -112 -62 -117 -62 -14 -132 -39
-202 -74 -261 -131 -582 -463 -760 -786 -34 -62 -70 -116 -79 -119 -35 -11
-113 -97 -139 -153 -19 -41 -26 -74 -26 -123 -1 -70 10 -94 50 -109 20 -8 21
-13 14 -47 -5 -21 -7 -99 -5 -173 5 -182 52 -372 116 -461 22 -31 65 -39 87
-17 9 9 13 8 17 -3 9 -26 66 -203 84 -264 10 -33 32 -103 49 -155 117 -366
341 -1073 346 -1095 2 -5 6 -17 9 -25 22 -59 38 -123 33 -136 -3 -8 -2 -12 4
-9 6 3 10 -1 10 -9 0 -9 4 -16 9 -16 16 0 38 -73 40 -136 2 -48 57 -76 96 -48
15 11 17 25 13 103 -3 49 -1 96 3 104 10 17 16 86 25 287 3 80 7 166 9 191 2
25 6 112 9 195 4 82 9 174 11 204 3 30 7 111 10 180 3 69 8 159 10 200 2 41 7
129 10 195 3 66 8 149 10 185 2 36 7 117 10 180 3 63 8 143 9 177 2 33 7 66
11 72 10 17 -4 50 -27 62 -25 13 -68 4 -68 -16 0 -9 -13 -15 -37 -17 -37 -3
-39 -5 -57 -60 -21 -65 -33 -68 -34 -8 -1 78 -23 101 -77 80 -16 -6 -32 -7
-36 -3 -6 7 -29 131 -44 243 l-6 45 83 66 c86 68 174 129 314 217 l82 51 6
-42 c31 -193 132 -484 241 -692 49 -92 173 -279 237 -358 130 -157 297 -306
466 -416 45 -29 82 -55 82 -57 0 -2 -24 -16 -52 -30 -169 -85 -390 -269 -438
-364 -40 -79 -25 -152 39 -185 139 -72 447 -116 776 -111 239 4 340 23 405 75
55 44 137 150 172 223 18 37 35 68 38 68 3 0 14 -19 24 -42 26 -62 111 -181
162 -228 51 -47 70 -55 179 -79 124 -28 478 -25 665 4 19 3 52 8 73 11 73 9
206 44 261 68 98 43 115 105 58 209 -52 97 -279 279 -450 362 -34 17 -62 32
-62 35 0 3 21 18 48 34 59 37 87 58 167 123 57 47 64 50 70 33 12 -38 83 -42
168 -9 150 59 267 133 386 245 224 211 379 516 446 876 60 327 57 617 -10 838
-42 137 -133 261 -236 318 -55 31 -55 32 -74 104 -63 250 -158 470 -297 692
l-69 109 81 77 c44 43 80 82 81 86 0 5 2 18 4 29 8 43 -75 180 -140 229 -44
34 -106 56 -157 56 -21 0 -87 -16 -145 -35 -58 -20 -112 -34 -119 -31 -10 4
-13 44 -11 184 2 159 -4 251 -27 370 -20 105 -97 237 -190 326 -142 137 -321
214 -596 257 -109 17 -465 19 -590 3z m-2386 -3997 c9 -49 -13 -74 -41 -46 -8
8 -5 20 11 44 11 18 22 32 23 31 1 -1 4 -14 7 -29z"/>
<path d="M796 998 c3 -5 10 -6 15 -3 13 9 11 12 -6 12 -8 0 -12 -4 -9 -9z"/>
<path d="M830 986 c0 -2 7 -7 16 -10 8 -3 12 -2 9 4 -6 10 -25 14 -25 6z"/>
<path d="M900 900 c-12 -7 -10 -9 7 -7 12 0 19 5 17 9 -6 10 -6 10 -24 -2z"/>
<path d="M777 855 c-4 -8 -3 -16 1 -19 4 -3 9 4 9 15 2 23 -3 25 -10 4z"/>
<path d="M817 853 c-10 -9 -9 -23 1 -23 5 0 9 7 9 15 0 17 -1 18 -10 8z"/>
<path d="M853 845 c0 -8 5 -11 10 -8 6 4 8 0 4 -10 -9 -23 15 -12 32 16 13 20
13 21 -2 8 -13 -10 -20 -11 -30 -2 -10 8 -14 7 -14 -4z"/>
<path d="M994 812 c23 -26 22 -26 30 -6 3 9 2 12 -5 9 -5 -4 -18 -1 -27 6 -13
11 -12 8 2 -9z"/>
<path d="M1055 821 c-3 -5 -2 -12 3 -15 5 -3 9 1 9 9 0 17 -3 19 -12 6z"/>
<path d="M915 810 c-4 -6 -11 -8 -16 -5 -5 4 -9 1 -9 -4 0 -15 11 -13 34 4 11
8 15 15 9 15 -7 0 -15 -5 -18 -10z"/>
<path d="M950 805 c0 -5 5 -17 10 -25 5 -8 10 -10 10 -5 0 6 -5 17 -10 25 -5
8 -10 11 -10 5z"/>
<path d="M976 797 c3 -10 9 -15 12 -12 3 3 0 11 -7 18 -10 9 -11 8 -5 -6z"/>
<path d="M850 781 c0 -6 4 -13 10 -16 6 -3 7 1 4 9 -7 18 -14 21 -14 7z"/>
<path d="M1030 785 c0 -5 5 -17 10 -25 5 -8 10 -10 10 -5 0 6 -5 17 -10 25 -5
8 -10 11 -10 5z"/>
<path d="M1056 778 c3 -4 11 -5 19 -1 21 7 19 12 -4 10 -11 0 -18 -5 -15 -9z"/>
<path d="M1010 765 c0 -8 4 -15 10 -15 5 0 7 7 4 15 -4 8 -8 15 -10 15 -2 0
-4 -7 -4 -15z"/>
<path d="M980 760 c-9 -6 -10 -10 -3 -10 6 0 15 5 18 10 8 12 4 12 -15 0z"/>
<path d="M1076 755 c-11 -8 -15 -15 -9 -15 7 0 15 5 18 10 4 6 11 7 17 4 7 -4
8 -2 4 4 -9 14 -7 15 -30 -3z"/>
<path d="M880 756 c0 -2 7 -7 16 -10 8 -3 12 -2 9 4 -6 10 -25 14 -25 6z"/>
<path d="M998 733 c7 -3 16 -2 19 1 4 3 -2 6 -13 5 -11 0 -14 -3 -6 -6z"/>
<path d="M906 722 c-3 -5 1 -9 9 -9 8 0 15 4 15 9 0 4 -4 8 -9 8 -6 0 -12 -4
-15 -8z"/>
<path d="M1050 718 c0 -4 4 -8 9 -8 6 0 12 4 15 8 3 5 -1 9 -9 9 -8 0 -15 -4
-15 -9z"/>
<path d="M974 698 c-5 -7 -3 -8 6 -3 9 5 11 1 6 -16 -3 -13 -3 -18 0 -11 3 6
10 9 16 6 6 -4 5 2 -1 15 -13 24 -17 25 -27 9z"/>
<path d="M1013 697 c-3 -7 -3 -9 2 -5 4 4 14 0 22 -10 8 -9 12 -12 9 -5 -4 6
-1 13 6 15 7 3 2 7 -10 10 -12 4 -25 1 -29 -5z"/>
<path d="M1066 682 c-2 -4 4 -8 15 -8 10 0 19 4 19 8 0 10 -27 10 -34 0z"/>
<path d="M1019 668 c-7 -23 -5 -37 4 -31 7 4 8 0 4 -11 -4 -10 -3 -15 3 -11
13 8 13 35 -1 35 -5 0 -7 5 -4 10 3 6 4 10 1 10 -3 0 -6 -1 -7 -2z"/>
<path d="M1110 663 c0 -5 5 -15 10 -23 7 -12 9 -10 7 8 -1 19 -17 33 -17 15z"/>
<path d="M1147 659 c7 -7 15 -10 18 -7 3 3 -2 9 -12 12 -14 6 -15 5 -6 -5z"/>
<path d="M1070 645 c0 -8 4 -15 10 -15 5 0 7 7 4 15 -4 8 -8 15 -10 15 -2 0
-4 -7 -4 -15z"/>
<path d="M1054 622 c3 -5 0 -13 -6 -15 -9 -4 -10 -6 -1 -6 17 -1 25 16 12 25
-7 4 -9 3 -5 -4z"/>
<path d="M1112 611 c-11 -7 -10 -9 3 -14 9 -4 14 -3 10 2 -3 5 1 12 7 14 7 3
9 6 3 6 -5 0 -16 -3 -23 -8z"/>
<path d="M1150 617 c0 -2 6 -10 14 -16 11 -9 16 -9 22 1 4 7 4 10 -1 6 -4 -4
-14 -3 -22 3 -7 6 -13 9 -13 6z"/>
<path d="M996 595 c-9 -26 -7 -32 5 -12 6 10 9 21 6 23 -2 3 -7 -2 -11 -11z"/>
<path d="M1050 560 c0 -3 14 -6 30 -6 17 0 30 3 30 6 0 4 -13 7 -30 7 -16 0
-30 -3 -30 -7z"/>
<path d="M1128 553 c6 -2 9 -10 6 -15 -4 -7 -2 -8 5 -4 13 9 5 26 -12 25 -9 0
-8 -2 1 -6z"/>
<path d="M1151 527 c-13 -21 -12 -21 5 -5 10 10 16 20 13 22 -3 3 -11 -5 -18
-17z"/>
<path d="M1107 527 c-3 -8 1 -14 8 -14 7 0 11 6 8 14 -3 7 -6 13 -8 13 -2 0
-5 -6 -8 -13z"/>
<path d="M1051 527 c2 -1 13 -9 24 -17 19 -14 19 -14 6 3 -7 9 -18 17 -24 17
-6 0 -8 -1 -6 -3z"/>
<path d="M1115 491 c-3 -5 0 -13 6 -17 7 -4 9 -3 5 4 -3 5 0 13 6 15 9 4 10 6
1 6 -6 1 -14 -3 -18 -8z"/>
<path d="M1190 493 c5 -2 8 -9 5 -13 -3 -5 -1 -11 4 -14 5 -4 8 2 7 11 -2 9
-8 18 -15 19 -6 1 -7 0 -1 -3z"/>
<path d="M1159 468 c-7 -23 -4 -35 7 -35 11 0 11 3 1 16 -10 12 -9 14 6 8 11
-4 16 -3 12 3 -5 9 -24 14 -26 8z"/>
<path d="M1230 455 c5 -7 6 -16 2 -21 -4 -5 -3 -5 2 -1 15 12 15 34 0 34 -9 0
-11 -4 -4 -12z"/>
<path d="M1173 405 c0 -8 4 -12 9 -9 5 3 6 10 3 15 -9 13 -12 11 -12 -6z"/>
<path d="M1210 410 c-9 -6 -10 -10 -3 -10 6 0 15 5 18 10 8 12 4 12 -15 0z"/>
<path d="M1246 403 c-6 -14 -5 -15 5 -6 7 7 10 15 7 18 -3 3 -9 -2 -12 -12z"/>
<path d="M1228 378 c5 -5 16 -8 23 -6 8 3 3 7 -10 11 -17 4 -21 3 -13 -5z"/>
<path d="M1270 306 c0 -2 7 -7 16 -10 8 -3 12 -2 9 4 -6 10 -25 14 -25 6z"/>
</g>
</svg>
