<?xml version="1.0" standalone="no"?>
<!DOCTYPE svg PUBLIC "-//W3C//DTD SVG 20010904//EN"
 "http://www.w3.org/TR/2001/REC-SVG-20010904/DTD/svg10.dtd">
<svg version="1.0" xmlns="http://www.w3.org/2000/svg"
 width="500.000000pt" height="500.000000pt" viewBox="0 0 500.000000 500.000000"
 preserveAspectRatio="xMidYMid meet">
<metadata>
Created by potrace 1.11, written by Peter Selinger 2001-2013
</metadata>
<g transform="translate(0.000000,500.000000) scale(0.100000,-0.100000)"
fill="#000000" stroke="none">
<path d="M829 4065 c-96 -35 -193 -129 -231 -223 l-23 -57 0 -1145 0 -1145 31
-66 c52 -110 131 -182 237 -214 37 -12 -3 -14 -307 -14 l-349 -1 6 -57 c13
-124 98 -236 225 -296 l67 -32 1979 -3 c1298 -1 1999 1 2034 8 166 30 297 165
318 328 l7 52 -349 1 c-300 0 -344 2 -313 14 109 40 190 113 237 213 l27 57 0
1160 0 1160 -27 57 c-33 70 -107 147 -179 185 l-54 28 -1650 2 c-1355 1 -1656
-1 -1686 -12z m3211 -1420 l0 -1055 -1535 0 -1535 0 0 1055 0 1055 1535 0
1535 0 0 -1055z m-1465 -1274 c130 -60 156 -216 52 -308 -111 -97 -274 -44
-306 98 -33 148 118 273 254 210z"/>
<path d="M2070 3520 c-234 -77 -432 -143 -440 -148 -9 -5 -15 -24 -15 -43 l0
-34 163 -53 162 -53 0 -183 c0 -212 -7 -196 111 -250 135 -63 213 -78 414 -83
153 -4 194 -2 275 15 113 24 186 50 260 95 62 36 57 18 51 202 -3 98 8 237 20
250 5 5 9 -11 9 -40 l0 -50 35 0 35 0 0 57 0 57 115 37 c97 30 116 39 121 59
3 13 1 31 -4 41 -13 23 -790 264 -847 263 -22 0 -226 -61 -465 -139z"/>
<path d="M1713 2663 l-53 -4 0 -113 c0 -106 -1 -115 -22 -130 l-23 -16 23 -16
c21 -15 22 -24 22 -130 l0 -114 79 0 c44 0 91 4 105 10 44 16 66 65 66 147 0
60 3 74 19 82 15 8 19 23 20 83 1 50 -3 79 -13 93 -15 20 -15 12 -2 -108 1
-16 -2 -26 -8 -24 -6 2 -13 39 -16 83 -9 137 -48 168 -197 157z m108 -123 c4
-14 7 -79 8 -145 1 -133 -11 -169 -52 -163 -21 3 -22 8 -25 158 -1 85 0 160 3
168 9 24 58 10 66 -18z"/>
<path d="M1760 2406 c0 -99 4 -157 11 -161 6 -4 12 -5 14 -3 2 2 5 74 7 161 3
144 2 157 -14 157 -16 0 -18 -14 -18 -154z"/>
<path d="M2382 2618 c3 -41 5 -43 38 -48 l35 -5 3 -65 c3 -57 1 -66 -20 -82
l-23 -18 22 -17 c20 -16 23 -28 25 -128 l3 -110 43 -3 42 -3 0 113 c0 99 2
115 19 125 14 9 18 25 20 80 1 37 5 71 9 75 4 3 21 8 37 10 27 3 30 7 33 41 4
44 -14 50 -23 7 -6 -26 -11 -30 -40 -30 -21 0 -35 -6 -39 -16 -11 -27 -6 -100
7 -113 10 -11 9 -13 -3 -9 -10 3 -16 21 -18 53 -5 75 3 93 40 97 28 3 33 8 39
38 4 19 5 38 3 42 -3 5 -61 8 -130 8 l-125 0 3 -42z"/>
<path d="M3110 2546 c0 -106 -1 -115 -22 -130 l-23 -16 23 -16 c21 -15 22 -24
22 -131 l0 -114 43 3 42 3 3 114 c2 94 6 117 20 128 16 12 16 14 0 27 -15 11
-18 31 -18 130 l0 116 -45 0 -45 0 0 -114z"/>
<path d="M3210 2526 c0 -80 3 -96 15 -96 13 0 15 15 13 92 -2 62 -7 93 -15 96
-10 3 -13 -20 -13 -92z"/>
<path d="M2422 2548 c6 -18 28 -21 28 -4 0 9 -7 16 -16 16 -9 0 -14 -5 -12
-12z"/>
<path d="M1935 2368 c-2 -7 -5 -43 -8 -80 -5 -75 -31 -127 -72 -146 -14 -7
-55 -12 -90 -12 -51 0 -65 -3 -65 -15 0 -12 13 -15 60 -15 l61 0 -17 -31 c-32
-64 -28 -183 9 -234 13 -17 19 -18 98 -6 375 56 430 60 459 33 19 -18 19 -19
-20 -111 -22 -51 -38 -96 -35 -101 3 -6 23 1 44 15 l39 24 6 -30 c12 -62 34
-30 64 94 9 37 20 66 25 64 5 -1 19 -42 32 -91 23 -89 40 -123 49 -95 16 53
13 51 41 33 14 -9 29 -14 32 -10 5 5 -11 60 -54 183 -3 6 5 14 16 18 12 3 21
13 21 22 0 14 15 15 128 9 243 -12 345 -26 363 -48 56 -71 115 103 74 217 -8
22 -15 41 -15 43 0 1 9 2 20 2 30 0 40 38 40 145 0 79 3 96 18 104 23 13 2 35
-27 26 -19 -6 -21 -15 -23 -123 l-3 -117 -31 -3 -31 -3 13 -56 c14 -59 11 -89
-12 -164 l-15 -46 -47 9 c-77 14 -312 38 -384 38 -68 0 -81 7 -53 30 19 16 19
37 1 47 -8 4 -16 24 -18 43 -2 29 -8 36 -28 39 -32 4 -42 20 -24 38 10 11 14
42 14 118 0 96 2 105 22 119 17 12 19 19 10 28 -9 9 -18 9 -36 0 -25 -11 -25
-15 -28 -124 l-3 -113 -27 -3 c-17 -2 -28 -9 -28 -19 0 -9 -6 -13 -15 -9 -8 3
-22 9 -30 12 -9 4 -19 -3 -26 -19 -7 -15 -23 -27 -40 -31 -25 -5 -29 -10 -29
-37 0 -18 -7 -41 -17 -51 -15 -17 -15 -20 7 -43 20 -21 21 -25 6 -25 -40 0
-312 -32 -388 -45 -46 -8 -86 -15 -89 -15 -3 0 -3 39 -1 88 2 48 -1 107 -6
131 -10 41 -9 46 14 64 39 30 64 89 64 149 0 43 4 56 20 66 12 7 18 17 15 22
-9 14 -45 12 -50 -2z m615 -303 c40 -21 60 -53 60 -98 0 -31 -7 -46 -34 -73
-30 -30 -40 -34 -85 -34 -42 0 -57 5 -76 25 -14 13 -24 34 -24 47 l2 23 4 -22
c6 -33 50 -63 90 -63 64 0 113 46 113 105 0 37 -49 86 -96 95 -32 6 -34 8 -11
9 15 0 41 -6 57 -14z m-124 -36 c-14 -17 -26 -38 -26 -46 0 -9 -3 -14 -6 -10
-10 9 6 46 29 67 31 29 32 24 3 -11z m-567 -42 c0 -23 -4 -60 -8 -82 -7 -34
-9 -26 -10 48 -1 57 3 86 9 82 6 -3 10 -25 9 -48z m639 2 c-23 -41 -45 -65
-53 -58 -4 4 66 99 73 99 2 0 -7 -18 -20 -41z m25 -14 c-3 -9 -8 -14 -10 -11
-3 3 -2 9 2 15 9 16 15 13 8 -4z m664 -37 c-3 -8 -6 -5 -6 6 -1 11 2 17 5 13
3 -3 4 -12 1 -19z m-7 -36 c0 -10 -7 -27 -15 -38 -13 -17 -13 -15 -3 19 12 41
18 47 18 19z m-770 -138 c-12 -34 -29 -65 -42 -73 -19 -12 -20 -11 -13 6 4 10
19 49 33 86 32 87 52 69 22 -19z m195 -62 c-6 -6 -21 34 -29 78 -4 25 0 20 14
-19 11 -30 18 -57 15 -59z m-47 59 c7 -21 12 -49 11 -62 -1 -17 -5 -11 -15 20
-7 24 -16 52 -19 62 -4 11 -2 19 3 19 5 0 14 -17 20 -39z m-120 -30 c-8 -35
-14 -47 -20 -38 -7 13 20 102 29 94 2 -2 -2 -27 -9 -56z"/>
<path d="M2131 2198 c-14 -38 -2 -58 34 -58 28 0 33 4 38 28 6 33 -8 52 -40
52 -15 0 -26 -8 -32 -22z"/>
<path d="M2817 2214 c-4 -4 -7 -23 -7 -41 0 -33 1 -34 38 -31 35 3 37 5 37 38
0 32 -3 35 -30 38 -17 2 -34 0 -38 -4z"/>
<path d="M2217 2174 c-4 -4 -7 -16 -7 -26 0 -13 -7 -18 -26 -18 -16 0 -24 -5
-21 -12 2 -7 19 -13 38 -13 30 0 34 3 37 29 4 29 -9 52 -21 40z"/>
<path d="M2898 2158 c-2 -15 -11 -24 -25 -26 -38 -5 -28 -32 11 -32 27 0 35 5
40 24 6 26 -1 56 -14 56 -5 0 -10 -10 -12 -22z"/>
<path d="M2800 1931 c0 -4 42 -11 93 -15 50 -4 102 -10 115 -13 12 -3 22 -1
22 4 0 6 -37 15 -82 21 -98 14 -148 15 -148 3z"/>
<path d="M2023 1921 c-51 -6 -72 -15 -61 -26 9 -9 138 16 138 26 0 5 -6 8 -12
8 -7 -1 -36 -5 -65 -8z"/>
</g>
</svg>
