<?xml version="1.0" standalone="no"?>
<!DOCTYPE svg PUBLIC "-//W3C//DTD SVG 20010904//EN"
 "http://www.w3.org/TR/2001/REC-SVG-20010904/DTD/svg10.dtd">
<svg version="1.0" xmlns="http://www.w3.org/2000/svg"
 width="500.000000pt" height="500.000000pt" viewBox="0 0 500.000000 500.000000"
 preserveAspectRatio="xMidYMid meet">

<g transform="translate(0.000000,500.000000) scale(0.100000,-0.100000)"
fill="#000000" stroke="none">
<path d="M838 4066 c-130 -47 -227 -155 -258 -288 -6 -27 -10 -450 -10 -1133
0 -954 2 -1098 16 -1150 17 -66 49 -128 94 -179 29 -32 126 -91 179 -106 14
-5 -131 -9 -323 -9 l-349 -1 6 -54 c12 -117 103 -242 215 -294 l57 -27 2029
-3 2030 -2 65 30 c128 60 204 163 226 307 l7 43 -354 1 c-307 0 -348 2 -311
14 102 31 189 108 240 214 l28 56 0 1155 0 1155 -31 65 c-38 79 -109 151 -184
188 l-55 27 -1640 2 c-1331 2 -1647 0 -1677 -11z m1522 -410 c-69 -23 -264
-87 -433 -142 -279 -90 -308 -101 -314 -123 -7 -30 6 -53 38 -62 13 -5 84 -27
157 -50 l132 -41 0 -183 c0 -161 2 -184 18 -197 34 -29 108 -66 182 -90 127
-43 198 -51 405 -46 170 4 200 8 280 32 50 15 119 44 155 64 l65 37 2 209 c1
162 4 211 15 217 10 7 14 -2 16 -39 3 -47 3 -48 37 -48 l35 0 0 57 0 57 99 31
c55 17 104 31 110 31 19 0 34 41 23 64 -8 18 -73 41 -378 135 -203 63 -378
117 -389 122 -11 4 305 8 703 8 l722 1 0 -1055 0 -1055 -1540 0 -1540 0 0
1055 0 1055 763 -1 762 -1 -125 -42z m251 -2302 c103 -71 104 -237 1 -307
-144 -100 -338 33 -293 201 34 125 185 180 292 106z"/>
<path d="M1667 2653 c-4 -3 -7 -56 -7 -116 0 -93 -3 -112 -17 -122 -17 -12
-17 -14 -1 -32 14 -15 18 -42 20 -128 l3 -110 74 -3 c130 -5 171 32 171 156 0
62 3 73 22 86 l22 16 -22 16 c-19 13 -22 24 -22 86 0 75 -21 127 -60 148 -21
11 -173 14 -183 3z m153 -109 c6 -14 10 -83 10 -153 0 -140 -8 -165 -51 -159
l-24 3 -3 155 c-1 85 0 160 2 167 3 7 17 13 31 13 18 0 28 -7 35 -26z"/>
<path d="M1767 2553 c-12 -11 -8 -301 4 -308 6 -4 12 -5 14 -3 2 2 5 74 7 161
3 149 -1 174 -25 150z"/>
<path d="M2384 2646 c-3 -8 -4 -27 -2 -43 3 -24 8 -28 41 -31 l37 -3 0 -72 c0
-63 -3 -74 -22 -86 l-21 -13 21 -17 c19 -14 22 -27 24 -126 l3 -110 43 -3 42
-3 0 114 c0 108 1 115 23 130 l22 15 -23 18 c-21 17 -23 26 -20 84 l3 65 35 5
c33 5 35 7 38 48 l3 42 -121 0 c-95 0 -122 -3 -126 -14z"/>
<path d="M3110 2546 c0 -106 -2 -116 -22 -130 l-21 -15 21 -18 c20 -16 22 -29
24 -128 l3 -110 40 0 40 0 3 114 c2 94 6 117 20 128 16 12 16 14 0 26 -14 11
-18 34 -20 128 l-3 114 -42 3 -43 3 0 -115z"/>
<path d="M2647 2590 c-6 -27 -11 -30 -42 -30 l-35 0 0 -65 c0 -78 18 -88 22
-12 3 47 5 52 28 55 36 5 50 20 50 53 0 38 -16 37 -23 -1z"/>
<path d="M3210 2525 c0 -57 4 -95 10 -95 6 0 10 38 10 95 0 57 -4 95 -10 95
-6 0 -10 -38 -10 -95z"/>
<path d="M1930 2498 c0 -39 4 -68 10 -68 13 0 13 100 0 120 -7 11 -10 -5 -10
-52z"/>
<path d="M2420 2551 c0 -5 7 -11 15 -15 9 -3 15 0 15 9 0 8 -7 15 -15 15 -8 0
-15 -4 -15 -9z"/>
<path d="M1943 2373 c-9 -3 -13 -26 -13 -66 0 -70 -28 -139 -66 -164 -17 -10
-47 -15 -95 -15 -50 1 -69 -2 -66 -11 2 -7 25 -12 61 -12 47 0 55 -2 50 -15
-40 -92 -41 -177 -3 -239 19 -32 22 -33 62 -27 289 48 487 67 487 48 0 -7 7
-12 15 -12 21 0 20 -9 -25 -111 -22 -51 -37 -95 -34 -98 3 -3 23 4 44 17 l38
22 7 -30 c4 -17 11 -30 15 -30 9 0 40 91 55 158 7 33 35 45 35 15 0 -41 43
-173 56 -173 8 0 14 10 14 23 0 35 11 40 36 16 35 -33 36 -8 4 80 -35 96 -37
111 -10 111 12 0 20 7 20 16 0 15 13 16 133 10 224 -11 340 -26 360 -47 10
-11 22 -19 27 -19 16 0 39 43 51 97 12 51 6 107 -16 165 -5 12 0 17 17 20 22
3 23 6 26 113 2 99 4 112 24 128 25 21 12 43 -21 32 -20 -6 -21 -13 -21 -126
l0 -119 -31 0 -31 0 9 -42 c12 -61 7 -135 -12 -185 -14 -37 -20 -42 -41 -38
-13 3 -35 7 -48 10 -56 11 -296 35 -358 35 -38 0 -68 3 -68 7 0 3 7 15 17 25
15 17 15 19 0 36 -10 10 -17 33 -17 51 0 27 -4 32 -29 37 -35 7 -46 27 -25 44
10 10 14 38 14 119 0 98 2 107 22 120 19 12 19 14 6 22 -9 5 -23 6 -32 3 -13
-5 -16 -24 -16 -103 0 -127 -5 -141 -42 -141 -24 0 -29 -3 -24 -16 6 -17 -4
-16 -46 1 -13 5 -20 1 -27 -18 -6 -16 -20 -26 -41 -31 -29 -5 -32 -9 -27 -33
4 -20 -1 -35 -16 -50 l-20 -23 23 -25 c13 -14 18 -25 11 -25 -36 0 -318 -33
-391 -45 -47 -8 -88 -15 -92 -15 -3 0 -4 35 -1 78 3 43 0 102 -6 131 -11 51
-10 54 13 72 37 29 66 98 66 156 0 36 4 53 15 57 8 3 15 12 15 21 0 15 -14 18
-37 8z m633 -327 c61 -61 41 -150 -40 -181 -97 -37 -177 35 -146 130 15 44 71
85 118 85 25 0 43 -9 68 -34z m-717 -61 c0 -22 -4 -58 -8 -80 -7 -33 -9 -22
-10 55 0 65 2 90 9 80 5 -8 10 -33 9 -55z m1321 -85 c-7 -28 -17 -50 -22 -50
-6 0 -7 7 -3 18 5 9 13 36 19 60 6 23 12 38 14 32 2 -6 -2 -33 -8 -60z m-765
-130 c-16 -53 -50 -99 -63 -85 -2 2 7 32 21 67 13 35 27 72 31 82 5 14 10 16
18 8 8 -8 7 -27 -7 -72z m183 -18 c16 -49 18 -61 7 -52 -8 7 -20 31 -26 54 -5
22 -13 50 -16 61 -13 47 16 -5 35 -63z m-157 -17 c-13 -54 -19 -65 -25 -49 -3
12 -2 33 4 48 5 14 15 38 20 52 19 48 19 20 1 -51z m120 20 c9 -27 15 -55 12
-62 -8 -19 -10 -15 -32 56 -23 75 -5 80 20 6z"/>
<path d="M2435 2037 c-27 -27 -35 -43 -35 -70 0 -49 8 -65 41 -82 67 -35 144
3 155 76 5 30 1 41 -22 68 -19 21 -42 34 -66 38 -33 5 -41 2 -73 -30z m61 -55
c-14 -22 -30 -43 -36 -47 -24 -15 -18 3 18 51 43 58 55 55 18 -4z m30 -8 c-4
-9 -9 -15 -11 -12 -3 3 -3 13 1 22 4 9 9 15 11 12 3 -3 3 -13 -1 -22z"/>
<path d="M2148 2212 c-13 -2 -18 -13 -18 -38 0 -32 2 -34 35 -34 33 0 35 2 35
34 0 35 -16 46 -52 38z"/>
<path d="M2826 2207 c-11 -8 -17 -22 -14 -38 2 -20 8 -24 38 -24 32 0 35 3 38
33 2 17 -1 32 -7 32 -5 0 -15 2 -23 5 -7 3 -22 -1 -32 -8z"/>
<path d="M2215 2150 c-3 -11 -15 -20 -26 -20 -10 0 -19 -7 -19 -15 0 -21 56
-20 64 1 9 24 7 54 -3 54 -5 0 -13 -9 -16 -20z"/>
<path d="M2897 2150 c-3 -12 -14 -20 -27 -20 -31 0 -19 -24 13 -28 21 -3 29 2
36 20 9 24 4 48 -9 48 -4 0 -10 -9 -13 -20z"/>
<path d="M2800 1931 c0 -5 46 -12 102 -16 55 -4 108 -9 117 -12 11 -4 13 -3 6
5 -19 20 -225 41 -225 23z"/>
<path d="M2022 1920 c-53 -8 -70 -15 -60 -25 9 -9 138 17 132 27 -3 4 -8 7
-12 7 -4 -1 -31 -5 -60 -9z"/>
</g>
</svg>
