<?xml version="1.0" encoding="UTF-8"?>
<svg viewBox="0 0 491.92993 580.27753" xmlns="http://www.w3.org/2000/svg" xmlns:xlink="http://www.w3.org/1999/xlink">
 <defs>
  <filter id="o">
   <feGaussianBlur stdDeviation="3.8085"/>
  </filter>
  <filter id="a">
   <feGaussianBlur stdDeviation="9.5213"/>
  </filter>
  <filter id="n" x="-1.4647" y="-.01344" width="3.9294" height="1.0269">
   <feGaussianBlur stdDeviation=".5793"/>
  </filter>
  <filter id="m" x="-.06622" y="-.17445" width="1.1324" height="1.3489">
   <feGaussianBlur stdDeviation="30.0889"/>
  </filter>
  <filter id="c" x="-.09029" y="-.35549" width="1.1806" height="1.711">
   <feGaussianBlur stdDeviation="1.2709"/>
  </filter>
  <linearGradient id="b">
   <stop stop-color="#a5a5a5" offset="0"/>
   <stop offset="1"/>
  </linearGradient>
  <linearGradient id="l" x1="90.687" x2="94.999" gradientUnits="userSpaceOnUse">
   <stop stop-color="#ffb142" offset="0"/>
   <stop stop-color="#c87600" offset="1"/>
  </linearGradient>
  <linearGradient id="k" x1="2815.9" x2="2810.7" y1="-1179.4" y2="-932.97" gradientTransform="matrix(-.13244 .00365 .00365 .13244 539.94 653.02)" gradientUnits="userSpaceOnUse">
   <stop stop-color="#1a1a1a" offset="0"/>
   <stop stop-color="#1a1a1a" stop-opacity="0" offset="1"/>
  </linearGradient>
  <linearGradient id="j" x1="1696.7" x2="1762.3" y1="845.33" y2="846.76" gradientTransform="matrix(-.13244 .00365 .00365 .13244 396.53 582.45)" gradientUnits="userSpaceOnUse">
   <stop offset="0"/>
   <stop stop-opacity="0" offset="1"/>
  </linearGradient>
  <linearGradient id="i" x1="-94.734" x2="-48.857" y1="534.07" y2="535.02" gradientUnits="userSpaceOnUse">
   <stop stop-color="#fff" offset="0"/>
   <stop stop-color="#fff" stop-opacity="0" offset="1"/>
  </linearGradient>
  <linearGradient id="h" x1="1773.2" x2="1789.8" y1="1392.6" y2="-587.04" gradientTransform="matrix(-.13244 .00365 .00365 .13244 397.92 584.8)" gradientUnits="userSpaceOnUse">
   <stop stop-color="#221c24" offset="0"/>
   <stop stop-color="#221c24" stop-opacity="0" offset="1"/>
  </linearGradient>
  <radialGradient id="e" cx="414.68" cy="-8.8805" r="123.55" gradientTransform="matrix(-1.8232e-6 .27968 -.60927 0 101.73 -39.26)" gradientUnits="userSpaceOnUse">
   <stop stop-color="#ffb142" offset="0"/>
   <stop stop-color="#ffb141" offset=".8868"/>
   <stop stop-color="#c87600" offset="1"/>
  </radialGradient>
  <radialGradient id="f" cx="610.46" cy="483.45" r="167.56" gradientTransform="matrix(0 -.48219 .4319 -1.2542e-6 -151.97 551.35)" gradientUnits="userSpaceOnUse" xlink:href="#b"/>
  <radialGradient id="g" cx="371.45" cy="647.69" r="59.255" gradientTransform="matrix(0 -.74351 -.66041 0 552.03 582.13)" gradientUnits="userSpaceOnUse" xlink:href="#b"/>
  <radialGradient id="d" cx="380.26" cy="622.49" r="59.255" gradientTransform="matrix(0 -.74351 .66041 0 -364.7 582.13)" gradientUnits="userSpaceOnUse" xlink:href="#b"/>
 </defs>
 <g transform="translate(-113.35 -180.92)">
  <path d="m399.72 315.57c40.754-0.2116 68.664 0.2696 102.13-7.8021 22.091-5.3274 45.55-2.4556 45.55-2.4556-0.10257 0.1171 5.9531-1.1981 2.8616 2.5039-7.7435 9.2727-23.483 23.411-51.27 28.883-67.423 7.0249-134.05 7.1214-200.19 2.9534-16.15-0.7856-27.759-9.893-38.929-19.379-9.8639-8.3768-13.893-20.957 5.9006-15.148 19.436 5.7048 93.184 10.656 133.94 10.444z" stroke="#000" stroke-width="6.1179"/>
  <g transform="matrix(3.2774 0 0 3.6821 97.246 -802.39)" fill-rule="evenodd">
   <path d="m81.781 385.54c-15.668 1.6128-33.638 14.291-26.495 17.056s27.873 3.9181 31.79 0.69241c2.0127-1.6576 5.6138-5.8087 6.0382-9.704 0.42497 3.8949 4.0155 8.0466 6.0281 9.704 3.9169 3.2257 24.658 2.0724 31.8-0.69241s-10.827-15.443-26.495-17.056c-8.0678 0.77761-10.97 3.4884-11.333 6.5983-0.36356-3.1099-3.2654-5.8207-11.333-6.5983z" fill="url(#e)" stroke="#000" stroke-width="1.5639"/>
   <path d="m81.784 385.55c-7.69 0.79161-15.927 4.249-21.485 7.8915 8.4173 3.8928 18.709 6.2918 29.865 6.5678 1.4296-1.8809 2.7102-4.1871 2.9529-6.415 0.24081 2.207 1.4914 4.4927 2.902 6.3641 10.973-0.4646 21.052-2.9801 29.254-6.9445-5.5378-3.4836-13.432-6.7029-20.823-7.4638-8.0678 0.77762-10.97 3.4884-11.333 6.5983-0.36356-3.1099-3.2654-5.8207-11.333-6.5983z" fill-opacity=".3137"/>
  </g>
  <g transform="matrix(3.2774 0 0 3.6821 97.246 -802.39)">
   <path d="m146.28 340.23a53.948 53.948 0 0 1 -107.9 0 53.948 53.948 0 1 1 107.9 0z" fill="url(#f)" stroke="#000" stroke-linecap="round" stroke-width="1.5639"/>
   <path d="m118.99 367.2a26.153 26.153 0 1 1 -52.307 0 26.153 26.153 0 1 1 52.307 0z" fill="#fff" stroke="#000" stroke-linecap="round" stroke-width="1.6292"/>
   <path d="m144.15 325.23c0.10951 1.4027 0.1731 2.8155 0.1731 4.2461 0 29.779-24.178 53.947-53.957 53.947-24.575 0-45.316-16.459-51.819-38.948 2.1699 27.795 25.426 49.701 53.774 49.701 29.779 0 53.957-24.168 53.957-53.947 0-5.2041-0.75099-10.237-2.1282-14.999z" fill-opacity=".3137"/>
  </g>
  <g transform="matrix(3.2774 0 0 3.6821 97.246 -802.39)">
   <path d="m81.252 304.33c-7.4731 0-13.543 6.9841-13.543 15.589s6.0697 15.589 13.543 15.589c4.3917 0 8.2889-2.4146 10.763-6.1503 2.4738 3.7383 6.3795 6.1503 10.773 6.1503 7.4731 0 13.543-6.9841 13.543-15.589s-6.0697-15.589-13.543-15.589c-4.3931 0-8.2992 2.4127-10.773 6.1503-2.4741-3.7348-6.3718-6.1503-10.763-6.1503z" fill="#fff" stroke="#000" stroke-linecap="round" stroke-width="1.6292"/>
   <path d="m92.662 331.22c-4.7179 0-9.846 4.2966-9.6408 7.0102s8.4101 14.02 10.256 14.02 9.0255-11.081 8.8203-14.247-6.3588-7.0102-9.4357-6.7841z" fill-opacity=".3137" fill-rule="evenodd"/>
   <path d="m91.917 328.5c-4.7179 0-9.846 3.8974-9.6408 6.3588s8.4101 12.718 10.256 12.718 9.0255-10.051 8.8204-12.923-6.3589-6.3588-9.4357-6.1537z" fill="url(#l)" fill-rule="evenodd" stroke="#000" stroke-width="1.6292"/>
   <path d="m89.648 322.66a3.3846 3.3846 0 0 1 -6.7691 0 3.3846 3.3846 0 1 1 6.7691 0z" stroke="#000" stroke-linecap="round" stroke-width="1.6292"/>
   <path d="m101.76 322.66a3.3846 3.3846 0 1 1 -6.7691 0 3.3846 3.3846 0 1 1 6.7691 0z" stroke="#000" stroke-linecap="round" stroke-width="1.6292"/>
  </g>
  <g transform="matrix(1.9392 2.6421 -2.9683 2.1787 1145.2 -425.31)" fill-rule="evenodd" stroke="#000" stroke-width="1.6292">
   <path d="m51.639 328.16c15.677 5.6371-4.615 30.676 12.323 52.523 3.1308 4.0382-18.856 0.68126-26.629-21.696-7.559-21.762-0.36897-35.041 14.306-30.827z" fill="#fff"/>
   <path d="m51.639 328.16c15.677 5.6371-13.877 33.276 12.323 52.523 7.3726 5.416-18.856 0.68126-26.629-21.696-7.559-21.762-0.36897-35.041 14.306-30.827z" fill="url(#d)"/>
  </g>
  <g transform="matrix(3.2651 -.28343 .31843 3.6683 -6.9272 -758.07)" fill-rule="evenodd" stroke="#000" stroke-width="1.6292">
   <path d="m135.69 328.16c-15.677 5.6371 4.615 30.676-12.323 52.523-3.1308 4.0382 18.856 0.68126 26.629-21.696 7.559-21.762 0.36897-35.041-14.306-30.827z" fill="#fff"/>
   <path d="m135.69 328.16c-15.677 5.6371 13.877 33.276-12.323 52.523-7.3726 5.416 18.856 0.68126 26.629-21.696 7.559-21.762 0.36897-35.041-14.306-30.827z" fill="url(#g)"/>
  </g>
  <g transform="matrix(1.103 0 0 1.103 823.9 248.28)" stroke="#000">
   <path d="m-294.64 51.062c-0.71204-17.528 1.7932-34.804-0.13139-53.346-2.1209-20.433-15.535-57.463-92.865-56.09s-88.092 40.877-88.208 58.744l-0.34639 53.353c62.892-10.209 122.28-8.8554 181.55-2.6608z" fill="#1a1a1a" stroke-width="5.3126"/>
   <path d="m-478.43 55.376-0.24782-12.202c60.085-15.209 120.04-15.855 186.13-4.0101l-3.1321 11.599c-63.29 17.75-124.35 15.638-182.75 4.6131v8.8e-5z" fill="#4d4d4d" stroke-width="5.5"/>
   <path d="m-383.09 54.381c43.459-0.96334 79.91-11.529 108.01-21.371 9.3082-3.2602 16.145 0.96579 20.649 6.0381 7.0148 10.064 8.0974 12.871 4.7435 12.431-1.1227-0.14731-2.7879-1.0229-4.6613-2.1394-22.762-0.66193-59.707 17.195-128.89 17.395-35.317 0.10198-101.67-9.6682-124.54-17.818-4.5723-1.6298-8.3947 2.186-9.7312 5.7813-1.078 0.02518-3.0052-21.043 16.298-16.116s74.658 16.762 118.12 15.799l4e-5 1.1e-4h-1e-5z" fill="#333" stroke-linecap="round" stroke-width="6.6848"/>
  </g>
  <g transform="matrix(.99495 -.10034 .10034 .99495 -51.209 21.678)">
   <path d="m147.34 474.84c-16.924-0.83265-33.282 15.685-30.188 32.719 2.12 5.5197 11.22 7.0651 13.344 0.65625 3.9381-6.596 13.126-12.354 20.094-6.5312 4.4632 2.4524 5.3225 7.5068 4.5938 12.062 0.17968 10.503 2.2876 21.772 1.2812 31.781-2.0206 1.6096-2.5065 0.94024-4.25-0.65625-4.5471-2.5836-8.6215 3.4456-6.0938 7.4062 0.69361 3.0132-0.23788 1.5616-1.3438-0.125-1.7341-1.8676-4.9756-0.27802-6.0312-0.125 0.42359-4.2582-3.8149-9.5442-8-6.1562-3.4617 2.4682-1.3962 6.3703-0.21458 9.2387 12.613 60.183 25.244 120.36 37.871 180.54 4.6886 2.3385 1.27 8.9162 2.75 13-1.3729 6.356 9.7953 8.0765 9.9375 1.4062 0.65037-6.0107-1.0942-12.375 2.5625-17.594 9.3262-60.338 18.427-121.14 27.875-181.62 4.9436-4.5758-4.2043-11.834-7.5312-6.0625-0.38373 3.4234-3.8359-1.0558-6.0938 1.125-3.5322 2.4533-2.4855 7.6017-5.5625 10.594-1.7199-4.0179 1.3206-8.4682-0.84375-12.062-2.5187-3.1897-6.2756-0.13567-9.3438-0.84375-2.3186-16.588 0.0203-34.103-5.2812-50.125-4.8836-11.436-17.007-19.35-29.531-18.625z"/>
   <g transform="translate(3.5714 -9.2857)">
    <g transform="translate(4.0406 48.487)">
     <path d="m170.4 689.91-0.91309 21.592c-0.51874 0.59618-1.011 0.63283-1.4734 0.0406l-2.1-21.51z" fill="#808080"/>
     <path d="m163.11347,507.06435c7.1004,27.99246 7.92181,15.88001 11.29872,4.48944l.14568-1.02709c-.36387-.12919-.59483-.52178-.5354-.94206 .0674-.47598.48411-.80968.93209-.74637s.75703.50321.68968.97923c-.0594.4203-.39318.73134-.77861.75457l-.15305,1.06043c3.5183,33.09602 10.91307,11.82645 17.0862,1.97325l.37716-1.19499c-.33716-.18822-.50068-.61256-.3718-1.01698 .14601-.45801.6132-.72112 1.04427-.58377s.66033.62126.51433,1.07931c-.12889.40445-.50621.65838-.8901.61681l-.0877.2758-4.40596,30.8756-46.17716,1.2716-6.6802-25.23958-.52163-1.34421c-.38067.0647-.77352-.16259-.92661-.55851-.17335-.4484.0279-.94681.4499-1.11001s.90122.0688 1.07459.51715c.15308.39592.0141.83167-.31102,1.03991l.36124.93443c13.89349,29.88963 15.15023,11.69516 15.13046-5.57342l-.18634-1.05109c-.38598-.0102-.72933-.30953-.80287-.72758-.0832-.47347.21031-.92131.6559-.9997s.87252.2416.95578.71508c.0735.41807-.14445.8169-.50378.95825l.22583,1.28194c7.87073,24.72188 9.71117,13.09191 12.39037-6.70744z" fill="#4b4b83"/>
     <path d="m163.11347,507.06435c7.1004,27.99246 7.92181,15.88001 11.29872,4.48944l.14568-1.02709c-.36387-.12919-.59483-.52178-.5354-.94206 .0674-.47598.48411-.80968.93209-.74637s.75703.50321.68968.97923c-.0594.4203-.39318.73134-.77861.75457l-.15305,1.06043c3.5183,33.09602 10.91307,11.82645 17.0862,1.97325l.37716-1.19499c-.33716-.18822-.50068-.61256-.3718-1.01698 .14601-.45801.6132-.72112 1.04427-.58377s.66033.62126.51433,1.07931c-.12889.40445-.50621.65838-.8901.61681l-.0877.2758-4.40596,30.8756-46.17716,1.2716-6.6802-25.23958-.52163-1.34421c-.38067.0647-.77352-.16259-.92661-.55851-.17335-.4484.0279-.94681.4499-1.11001s.90122.0688 1.07459.51715c.15308.39592.0141.83167-.31102,1.03991l.36124.93443c13.89349,29.88963 15.15023,11.69516 15.13046-5.57342l-.18634-1.05109c-.38598-.0102-.72933-.30953-.80287-.72758-.0832-.47347.21031-.92131.6559-.9997s.87252.2416.95578.71508c.0735.41807-.14445.8169-.50378.95825l.22583,1.28194c7.87073,24.72188 9.71117,13.09191 12.39037-6.70744z" fill="url(#k)" opacity=".5203"/>
     <path d="m170.4 689.91-0.91309 21.592c-0.51874 0.59618-1.011 0.63283-1.4734 0.0406l-2.1-21.51z" fill="url(#j)"/>
     <g transform="matrix(-1.655 .04056 .04557 1.4729 54.248 -233.93)">
      <path d="m-38.747 458.84c-5.5262-0.56157-14.975 11.528-16.537 18.657l-3.1322 67.872h11.382l1.5091-68.544-0.22705 0.0968c0.35204-3.1375 4.3814-7.469 7.5117-7.469 3.3422 0 10.507 1.5705 10.507 4.9128 1.7734 2.0672 2.1464 6.1781 5.3039 2.4783 0-9.7407-6.5755-18.004-16.316-18.004z" fill="#6b5041"/>
      <path d="m-38.747 458.84c-9.7407 0-16.524 8.7936-16.524 18.534l-0.01691 1e-3 -3.1289 67.994h11.382l1.4838-68.483 0.01221-0.031c0.35204-3.1375 4.4842-7.6537 7.6145-7.6537 3.3422 0 10.657 2.1518 10.657 5.494 1.7734 2.0672 1.6796 5.8481 4.837 2.1483 0-9.7407-6.5755-18.004-16.316-18.004z" fill="url(#i)"/>
      <path transform="matrix(-.60379 .01663 .01868 .67842 38.658 124.84)" d="m143.31 488.75c-16.12 0.39508-26.6 12.84-26.156 27.188 5.3941 5.3214 4.9763 1.2774 7.817-1.8393 2.437-3.8514 9.8125-9.0698 15.344-9.2054 5.4973-0.13473 14.784 6.3724 15.027 11.281 0.53187 8.9272 0.96152 17.586 1.5051 26.513l16.91-0.85714-1.625-26.188c-0.99766-17.613-14.888-27.865-28.821-26.893z" fill="#2b2b4c"/>
     </g>
     <g transform="matrix(-.13244 .00365 .00365 .13244 397.85 584.86)">
      <path d="m1474.8-609.62 251.31 1387.3c17.571 7.5538 35.757 12.345 57.75 0l251.31-1387.3c-128.86 317.21-122.22 172.06-126.19 0-69.225 255.19-116.61 193.56-147.03 0-60.097 278.36-97.163 111.06-133.25 0-24.386 342.86-92.587 89.294-153.91 0z" fill="#2c2c4e"/>
      <path d="m1470.7-620.09c-3.1042 1.4234-4.3881 5.2519-2.8757 8.5502 1.3354 2.9122 4.4088 4.4466 7.247 3.7842l4.8674 10.615c0.2677 0.58386 0.9644 0.84248 1.5482 0.57475s0.8425-0.96438 0.5748-1.5482l-4.8675-10.615c2.354-1.7184 3.1967-5.0486 1.8614-7.9608-1.5125-3.2983-5.2513-4.8236-8.3556-3.4002z" fill="#a8a8f5"/>
      <path d="m1625.3-624.05c-3.3548 0.63811-5.5187 4.0474-4.8407 7.612 0.5987 3.1473 3.2148 5.3735 6.129 5.4105l2.1819 11.472c0.1197 0.63103 0.7345 1.049 1.3654 0.929s1.0491-0.7344 0.9291-1.3654l-2.182-11.472c2.6971-1.1042 4.3133-4.1355 3.7147-7.2828-0.678-3.5646-3.9424-5.9414-7.2974-5.3033z" fill="#a8a8f5"/>
      <path d="m1762-626.37c-3.4148-0.0342-6.207 2.8828-6.2433 6.5112-0.032 3.2036 2.0951 5.9009 4.945 6.5104l-0.1171 11.677c-0.01 0.64225 0.5138 1.173 1.156 1.1794s1.173-0.5137 1.1795-1.156l0.1171-11.677c2.8616-0.55214 5.0424-3.2063 5.0746-6.4098 0.036-3.6284-2.6968-6.6008-6.1118-6.6351z" fill="#a8a8f5"/>
      <path d="m1911.3-619.73c-3.3553-0.6357-6.6181 1.7434-7.2934 5.3085-0.5962 3.1478 1.0219 6.1778 3.7198 7.2802l-2.1736 11.474c-0.1252 0.63003 0.2991 1.2452 0.9301 1.3647s1.2451-0.29887 1.3648-0.92994l2.1736-11.474c2.914-0.039 5.5286-2.2671 6.1251-5.4148 0.6754-3.5652-1.4908-6.9729-4.8463-7.6087z" fill="#a8a8f5"/>
      <path d="m2037.2-618.94c-3.29-0.91546-6.7412 1.181-7.7137 4.6767-0.8587 3.0865 0.499 6.2418 3.0947 7.567l-3.1302 11.25c-0.1777 0.61728 0.1934 1.266 0.8121 1.4381s1.2658-0.19317 1.4381-0.81194l3.1303-11.25c2.9069 0.20605 5.6996-1.7944 6.5585-4.8808 0.9727-3.4958-0.8995-7.0735-4.1897-7.989z" fill="#a8a8f5"/>
     </g>
     <path d="m200.38 509.44-28.225 184.66c-2.2997 1.0645-4.6907 1.7654-7.6486 0.21062l-38.344-182.82c18.224 41.543 16.815 22.342 16.713-0.46022 10.099 33.546 16.15 25.21 19.473-0.53624 8.9747 36.648 13.274 14.354 17.648-0.48598 4.4802 45.32 12.588 11.489 20.384-0.56132z" fill="url(#h)" opacity=".5"/>
     <g transform="matrix(-.13244 .00365 .00365 .13244 397.87 583.31)" fill="none" filter="url(#o)" stroke="#000">
      <path d="m1760.1-590.26-5.1464 1363.7"/>
      <path d="m1906.2-576.74-150.52 1348.4"/>
      <path d="m1630.9-592.27 124.09 1366.7"/>
      <path d="m2023.6-569.94-266.42 1340.9"/>
      <path d="m1486.1-579.9 267.39 1350.8"/>
     </g>
     <path transform="matrix(-.13244 .00365 .00365 .13244 539.94 653.02)" d="m2817.5-1145.7-5.1464 1363.7" fill="none" filter="url(#a)" opacity=".0935" stroke="#000" stroke-width="20"/>
     <path transform="matrix(-.13244 .00365 .00365 .13244 539.94 653.02)" d="m2963.6-1132.2-150.52 1348.4" fill="none" filter="url(#a)" opacity=".0935" stroke="#000" stroke-width="20"/>
     <path transform="matrix(-.13244 .00365 .00365 .13244 539.94 653.02)" d="m2688.3-1147.7 124.09 1366.7" fill="none" filter="url(#a)" opacity=".0935" stroke="#000" stroke-width="20"/>
     <path transform="matrix(-.13244 .00365 .00365 .13244 539.94 653.02)" d="m3081-1125.4-266.42 1340.9" fill="none" filter="url(#a)" opacity=".0935" stroke="#000" stroke-width="20"/>
     <path transform="matrix(-.13244 .00365 .00365 .13244 539.94 653.02)" d="m2543.5-1135.3 267.39 1350.8" fill="none" filter="url(#a)" opacity=".0935" stroke="#000" stroke-width="20"/>
     <path transform="matrix(-.72844 .02006 .00365 .13244 1438.9 553.75)" d="m1748.9 865.37c0 28.57-0.2125 51.731-0.4746 51.731s-0.4746-23.161-0.4746-51.731 0.2125-51.731 0.4746-51.731 0.4746 23.161 0.4746 51.731z" fill="#fff" filter="url(#n)" opacity=".1301"/>
     <path transform="matrix(-.0851 -.09832 -.09472 .00062259 441.98 991.15)" d="m3581.9-52.312c-0.9452 0.02852-1.8838 0.37293-2.625 1.0312-1.3088 1.1625-1.5299 2.9151-0.5937 4.1562l-0.125 0.09375-700.62 368.84c-0.1425 2.637-0.1347 5.2567 0.125 7.8438l-66.125 26.625c-1.5617 2.7226-0.9107 4.5499 2.25 5.3438l69.25-18.156c1.6134 2.0564 3.6546 4.0655 6.25 6l799.75-127.88 2.0937-0.15625c0.4789 1.43 2.1196 2.3923 3.9688 2.25 2.0945-0.16122 3.6718-1.6965 3.5-3.4375s-2.0305-3.0051-4.125-2.8438c-1.8493 0.14241-3.2771 1.3621-3.4688 2.8438l-6.1562 0.46875c-67.984-1.9116-101.11-6.1016-111.12-12.219l71.5-8.0625 6.3125-0.0625c0.3644 1.4561 1.9252 2.5277 3.7813 2.5 2.1019-0.0315 3.7833-1.4717 3.75-3.2188s-1.7417-3.1251-3.8438-3.0938c-1.856 0.0277-3.4102 1.1588-3.7188 2.625l-4.375 0.0625c-29.959-1.3044-50.57-3.678-63.812-6.8438 16.601-8.6117 47.212-18.917 79.812-30.406l3-0.46875c0.6133 1.3894 2.3584 2.2478 4.1876 1.9688 2.0717-0.31614 3.4618-1.9655 3.125-3.6875s-2.2721-2.8474-4.3438-2.5312c-1.8292 0.27919-3.1688 1.5718-3.2188 3.0625l-3.1874 0.5c-35.635 2.7845-61.313 2.9545-78.219 0.875 15.609-8.1819 38.053-16.748 60.344-24.719l4.5624-0.875c0.6769 1.3662 2.4352 2.1882 4.25 1.8438 2.0553-0.39042 3.3845-2.1042 2.9688-3.8125s-2.4133-2.7653-4.4688-2.375c-1.8148 0.34462-3.0499 1.6963-3.0312 3.1875l-5.5625 1.0625c-53.668 3.6868-71.954 0.32392-68.25-8.3125h0.031l246.94-81.656v-0.03125c11.987-2.6646 27.233 2.8952 31.531 13.031 4.5891 10.822 0.9105 29.916-11.344 33.969-5.1443 8.249-6.7444 20.606 11.156 26.344 35.714-11.812 56.968-43.116 43.594-74.656s-56.755-46.812-92.469-35l0.062 0.125-230.16 76.125c-0.1965-0.04949-0.4098-0.10374-0.5937-0.15625-15.455-4.4121 13.496-19.434 39.5-37.781l3.9063-2c1.1222 1.1142 3.0824 1.3548 4.6874 0.53125 1.8176-0.93285 2.4939-2.8954 1.5-4.4062s-3.2759-1.9954-5.0937-1.0625c-1.6051 0.8236-2.3214 2.4934-1.7813 3.9062l-4.0312 2.0938c-17.485 4.4395-31.632 7.3972-42.938 9.1562-0.9416 0.14651-1.8475 0.27667-2.75 0.40625 12.479-9.392 27.659-19.44 41.219-28.906l3.3126-1.7812c1.1472 1.0943 3.1326 1.3204 4.7187 0.46875 1.7964-0.96459 2.4342-2.9443 1.4063-4.4375s-3.3286-1.9333-5.125-0.96875c-1.5862 0.8517-2.2596 2.5031-1.6876 3.9062l-4 2.1562c-34.828 8.9777-58.836 13.55-74.594 14.75 0.1937-0.40511 0.4062-0.80307 0.625-1.2188 7.6384-14.515 30.202-35.314 43.688-51.812l4.2188-3.0938c1.3175 0.93279 3.2923 0.89272 4.7187-0.15625 1.6154-1.1882 1.9221-3.2197 0.6563-4.5625-0.9498-1.007-2.5079-1.3429-3.9063-0.9375-0.2331 0.06757-0.4665 0.17336-0.6875 0.28125s-0.4231 0.22648-0.625 0.375c-1.4265 1.049-1.8316 2.7806-1.0312 4.0938l-0.9688 0.6875-64.844 33.375c13.842-17.469 43.459-41.63 60.75-61.25l4.375-3.9062c1.4108 0.81966 3.3787 0.63122 4.6876-0.53125 1.4823-1.3167 1.5594-3.3929 0.1562-4.625-0.7016-0.61604-1.6485-0.90352-2.5938-0.875z" fill-opacity=".5255" filter="url(#m)" opacity=".5935"/>
    </g>
    <path d="m128.29 497.51c4.5686-7.9117 26.543-9.8644 33.784 2.1876-10.055-8.6843-27.704-7.174-33.784-2.1876z" fill="#fff" filter="url(#c)" opacity=".4334"/>
    <path transform="matrix(.86883 0 0 1.2436 123.86 -186.1)" d="m3.8162 560.5c4.5686-7.9117 26.543-9.8644 33.784 2.1876-10.055-8.6843-27.704-7.174-33.784-2.1876z" filter="url(#c)" opacity=".4334"/>
   </g>
  </g>
 </g>
</svg>
