<?xml version="1.0" encoding="UTF-8" standalone="no"?>
<!-- Created with Inkscape (http://www.inkscape.org/) -->

<svg
   xmlns:dc="http://purl.org/dc/elements/1.1/"
   xmlns:cc="http://creativecommons.org/ns#"
   xmlns:rdf="http://www.w3.org/1999/02/22-rdf-syntax-ns#"
   xmlns:svg="http://www.w3.org/2000/svg"
   xmlns="http://www.w3.org/2000/svg"
   xmlns:sodipodi="http://sodipodi.sourceforge.net/DTD/sodipodi-0.dtd"
   xmlns:inkscape="http://www.inkscape.org/namespaces/inkscape"
   width="210mm"
   height="297mm"
   viewBox="0 0 210 297"
   version="1.1"
   id="svg1555"
   inkscape:version="0.92.5 (0.92.5+68)"
   sodipodi:docname="desenhando_final_2.svg">
  <defs
     id="defs1549" />
  <sodipodi:namedview
     id="base"
     pagecolor="#ffffff"
     bordercolor="#666666"
     borderopacity="1.0"
     inkscape:pageopacity="0.0"
     inkscape:pageshadow="2"
     inkscape:zoom="0.35"
     inkscape:cx="621.68729"
     inkscape:cy="445.71429"
     inkscape:document-units="mm"
     inkscape:current-layer="layer1"
     showgrid="false"
     inkscape:window-width="1360"
     inkscape:window-height="744"
     inkscape:window-x="0"
     inkscape:window-y="24"
     inkscape:window-maximized="1" />
  <metadata
     id="metadata1552">
    <rdf:RDF>
      <cc:Work
         rdf:about="">
        <dc:format>image/svg+xml</dc:format>
        <dc:type
           rdf:resource="http://purl.org/dc/dcmitype/StillImage" />
        <dc:title></dc:title>
      </cc:Work>
    </rdf:RDF>
  </metadata>
  <g
     inkscape:label="Camada 1"
     inkscape:groupmode="layer"
     id="layer1">
    <g
       transform="matrix(0.73049414,0,0,0.73060642,-71.994427,-384.60568)"
       id="g1135"
       inkscape:export-filename="/home/xubuntu/Desktop/tux_inverso.png"
       inkscape:export-xdpi="96"
       inkscape:export-ydpi="96"
       style="stroke-width:1.36883116">
      <path
         style="fill:#000000;fill-rule:evenodd;stroke:#000000;stroke-width:0.36216989px;stroke-linecap:butt;stroke-linejoin:miter;stroke-opacity:1"
         d="m 137.9613,629.99701 c -26.61741,3.92306 -31.89036,40.52027 -37.66475,60.79791 -4.129429,24.57052 4.37445,49.12531 14.59952,58.25058 16.92319,14.11923 33.09986,27.7552 55.13841,23.92981 16.15387,1.93596 38.9977,-0.0423 37.8628,-21.80109 3.43041,-27.09503 -38.4951,-12.24436 -50.69869,-30.73077 -9.04783,-11.30111 -16.19035,-12.23296 -24.92102,-23.91578 -8.81985,-13.08105 2.92209,-41.69314 12.11948,-56.74224 2.08364,-6.86087 -0.58228,-6.98212 -6.43575,-9.78842 z"
         id="path1066"
         inkscape:connector-curvature="0"
         sodipodi:nodetypes="ccccccccc" />
      <path
         style="fill:#ff7f2a;fill-rule:evenodd;stroke:#000000;stroke-width:0.36216989px;stroke-linecap:butt;stroke-linejoin:miter;stroke-opacity:1"
         d="m 167.06547,884.37498 c -21.6289,3.04567 -43.92736,5.88012 -63.5237,16.20032 -15.376809,16.78375 10.04336,26.4933 24.12384,21.38978 22.46925,4.21007 42.63843,-5.86473 63.55941,-11.53607 20.75149,3.30697 38.75631,-29.97997 11.0144,-31.69602 -10.69776,3.20143 -35.97927,-14.18795 -35.17395,5.64199 z"
         id="path1068"
         inkscape:connector-curvature="0" />
      <path
         style="fill:#ff7f2a;fill-rule:evenodd;stroke:#000000;stroke-width:0.31513003px;stroke-linecap:butt;stroke-linejoin:miter;stroke-opacity:1"
         d="m 234.76243,879.19771 c -4.75939,18.35179 -14.40959,42.40569 9.66849,51.45625 22.08029,6.28553 48.14016,-2.74977 68.0224,-12.1494 18.1131,-19.40564 -13.58211,-30.56031 -20.90805,-45.88713 -10.78644,-16.17004 -33.16856,-9.8918 -48.31933,-4.69862 -4.25086,2.36475 -7.38869,6.52933 -8.46351,11.2789 z"
         id="path1070"
         inkscape:connector-curvature="0" />
      <path
         style="fill:#000000;fill-rule:evenodd;stroke:#000000;stroke-width:0.27712375px;stroke-linecap:butt;stroke-linejoin:miter;stroke-opacity:1"
         d="m 319.6432,819.69944 c 4.84295,13.8896 18.66029,20.49437 23.23402,34.76574 0.43716,19.39717 -21.44835,14.21237 -32.49814,15.41286 -17.58591,6.2529 -24.13124,-18.79272 -12.66049,-31.06753 5.96494,-7.97551 14.05408,-13.93135 21.92461,-19.11107 z"
         id="path1072"
         inkscape:connector-curvature="0" />
      <path
         style="fill:#000000;fill-rule:evenodd;stroke:#000000;stroke-width:0.36216989px;stroke-linecap:butt;stroke-linejoin:miter;stroke-opacity:1"
         d="m 200.32736,587.28571 c -18.5839,9.27953 -37.14443,20.57256 -44.87553,40.88212 -12.58239,24.40801 -6.90318,53.62663 0.64874,78.60079 11.93322,22.34666 3.68152,46.86517 -9.73456,66.04537 -4.28033,14.57986 -11.56194,28.7134 -17.09817,44.01367 -3.81185,12.52725 -4.11173,26.94131 1.75076,39.20905 5.14637,19.7521 26.43559,34.59963 47.49676,34.63837 32.50247,2.35791 65.39487,-3.35064 96.40783,-12.80893 19.68714,-10.51213 35.38518,-4.39998 48.03103,-24.82007 17.94469,-29.91421 14.22272,-64.57441 8.16849,-98.38011 -10.36498,-18.0808 -18.9545,-37.04059 -24.83382,-56.04454 -3.90298,-19.54147 -1.51778,-46.54272 -6.50932,-67.35047 -1.4615,-20.44572 -6.99766,-45.966 -31.92492,-48.13753 -21.89796,-1.70005 -45.39434,-3.18755 -66.57416,3.33393 l -0.7739,0.66446 z"
         id="path1074"
         inkscape:connector-curvature="0"
         sodipodi:nodetypes="cccccccccccccccc" />
      <path
         style="fill:#ffffff;fill-rule:evenodd;stroke:#000000;stroke-width:2.73766232;stroke-linecap:butt;stroke-linejoin:miter;stroke-miterlimit:4;stroke-dasharray:none;stroke-opacity:1"
         d="m 141.85085,627.25185 c -0.95622,17.46365 -12.99814,44.86509 8.49822,54.2264 22.4447,4.17976 36.58389,-21.52691 27.75148,-39.95397 -7.89927,-11.30838 -23.28815,-14.42746 -36.2497,-14.27243 z"
         id="path1076"
         inkscape:connector-curvature="0" />
      <path
         style="fill:#000000;fill-rule:evenodd;stroke:#000000;stroke-width:0.36216989px;stroke-linecap:butt;stroke-linejoin:miter;stroke-opacity:1"
         d="m 160.02903,662.56894 c 2.35043,26.35343 26.52336,-18.4133 2.1193,-9.71638 -1.82636,2.87441 -2.35044,6.37753 -2.1193,9.71638 z"
         id="path1078"
         inkscape:connector-curvature="0" />
      <path
         style="fill:#ffffff;fill-rule:evenodd;stroke:#000000;stroke-width:0.36216989px;stroke-linecap:butt;stroke-linejoin:miter;stroke-opacity:1"
         d="m 208.13754,704.79752 c 22.48435,6.01923 25.46175,35.56959 36.59792,52.87378 4.19536,22.43999 6.97423,45.16583 10.49264,67.73018 0.25688,18.88065 1.86089,44.69264 -16.72123,55.74114 -19.31856,7.78656 -41.24716,5.7068 -61.70987,5.85862 -27.11029,-1.51161 -45.9148,-28.93212 -46.04048,-54.35142 4.72926,-17.72445 12.12929,-37.25276 15.94031,-55.17724 6.32733,-18.84005 13.49287,-45.22422 23.74715,-62.22473 10.49145,-9.53818 24.49144,-5.37675 37.69356,-10.45033 z"
         id="path1080"
         inkscape:connector-curvature="0"
         sodipodi:nodetypes="ccccccccc" />
      <path
         style="fill:#ff7f2a;fill-rule:evenodd;stroke:#000000;stroke-width:0.36216989px;stroke-linecap:butt;stroke-linejoin:miter;stroke-opacity:1"
         d="m 182.18451,671.95237 c -18.48706,3.82867 -25.96249,15.92987 -30.86783,32.80398 -8.26287,16.23032 7.87472,32.92936 21.37107,17.20972 14.7009,-10.37106 39.54703,-4.13878 39.22431,-23.48996 3.39912,-17.89073 -16.27638,-23.93376 -29.72755,-26.52374 z"
         id="path1082"
         inkscape:connector-curvature="0"
         sodipodi:nodetypes="ccccc" />
      <g
         transform="translate(-65.011905,494.39285)"
         id="g1088"
         style="stroke-width:1.36883116">
        <path
           inkscape:connector-curvature="0"
           id="path1084"
           d="m 247.21606,135.00599 c -0.14273,19.35622 -6.53887,45.07124 12.78159,57.70853 23.33667,17.09532 49.17383,-9.88916 37.27499,-33.98552 -6.73411,-20.04323 -30.40844,-31.70581 -50.05658,-23.72301 z"
           style="fill:#ffffff;fill-rule:evenodd;stroke:#000000;stroke-width:2.73766232;stroke-linecap:butt;stroke-linejoin:miter;stroke-miterlimit:4;stroke-dasharray:none;stroke-opacity:1" />
        <path
           inkscape:connector-curvature="0"
           id="path1086"
           d="m 282.77116,164.43431 c -9.86158,11.72709 4.08684,26.92126 11.70502,10.63925 3.16067,-7.57279 -4.22657,-16.6296 -11.70502,-10.63925 z"
           style="fill:#000000;fill-rule:evenodd;stroke:#000000;stroke-width:0.36216989px;stroke-linecap:butt;stroke-linejoin:miter;stroke-opacity:1" />
      </g>
      <path
         style="fill:#666666;fill-opacity:1;fill-rule:evenodd;stroke:#fff8f8;stroke-width:2.73766232;stroke-linecap:butt;stroke-linejoin:miter;stroke-miterlimit:4;stroke-dasharray:none;stroke-opacity:1"
         d="m 203.35118,547.22023 c -19.31067,4.05628 -37.11891,13.53543 -55.61149,19.96718 -14.18285,9.90747 -34.59471,22.73288 -31.71313,42.61821 5.87448,24.11384 31.97626,35.14621 54.78407,35.30202 41.41909,3.77949 85.5899,-4.92999 117.61193,-32.88125 15.90585,-11.54341 31.09223,-37.29725 15.23055,-54.60074 -20.30518,-13.13226 -45.71179,-14.94132 -69.30787,-14.18518 -9.73602,4.56956 -20.7438,1.97781 -30.99406,3.77976 z"
         id="path1090"
         inkscape:connector-curvature="0" />
      <path
         style="fill:#666666;fill-opacity:1;fill-rule:evenodd;stroke:#fff8f8;stroke-width:0.36644101px;stroke-linecap:butt;stroke-linejoin:miter;stroke-opacity:1"
         d="m 155.85577,542.54145 c -4.81258,18.21993 -6.3277,29.41358 -1.97442,49.51194 -6.35349,14.67349 24.28797,25.93447 47.85524,22.21386 29.53739,2.16599 48.93495,-0.99424 67.01988,-24.68542 16.99601,-13.48137 19.62277,-34.87039 -0.10829,-39.95657 -5.77188,-11.23227 -10.34742,-19.61411 -41.34093,-20.55173 -9.84616,-5.69371 -56.85337,-10.97373 -71.45148,13.46792 z"
         id="path1092"
         inkscape:connector-curvature="0"
         sodipodi:nodetypes="ccccccc" />
      <path
         style="fill:#0f0c0c;fill-opacity:1;fill-rule:evenodd;stroke:#fff8f8;stroke-width:0.36216989px;stroke-linecap:butt;stroke-linejoin:miter;stroke-opacity:1"
         d="m 152.01094,578.11176 c 2.83208,10.06486 13.9807,14.65518 23.59875,15.06311 8.27968,1.26414 16.69503,3.88148 25.08332,1.69421 10.78611,-1.99468 21.51922,-4.70937 32.5121,-5.27775 6.39571,-0.38356 12.79922,1.79861 19.10861,-0.12782 5.88091,-1.49671 11.73225,-3.64095 16.89504,-6.82823 6.52504,-5.16947 8.65817,-13.70251 10.20366,-21.48798 5.73708,0.38535 1.45666,9.26665 2.37041,13.18339 -2.05734,5.5908 -7.10341,9.66713 -7.87416,15.92779 -1.42572,6.04395 -6.52224,9.46264 -11.71202,12.01693 -17.58934,10.49818 -38.58257,14.21315 -58.84782,12.63583 -14.58399,0.21339 -29.7553,0.96572 -43.55941,-4.60057 -6.98388,-4.07732 -7.46145,-13.06093 -7.65448,-20.2729 -0.24259,-3.97123 -0.0661,-7.95114 -0.124,-11.92601 z"
         id="path1094"
         inkscape:connector-curvature="0" />
      <path
         inkscape:connector-curvature="0"
         id="path1096"
         d="m 207.4011,758.37959 c 17.29812,-0.72892 22.02366,-23.47992 1.39946,-14.47773 -23.91004,4.23768 -28.1138,38.10525 -13.60498,53.99273 19.04296,4.52975 39.85545,-18.13365 54.93844,-26.91747 14.16021,-11.35724 21.18752,-26.63365 24.05487,-42.19024 -14.91139,-5.1931 -19.75951,13.46527 -28.79716,22.46805 -8.39776,9.57608 -32.30072,27.76188 -43.81729,25.62507 -5.48683,-2.66505 1.11054,-14.16918 5.82666,-18.50041 z"
         style="fill:#705648;fill-opacity:1;fill-rule:evenodd;stroke:#000000;stroke-width:0.36216989px;stroke-linecap:butt;stroke-linejoin:miter;stroke-opacity:1"
         sodipodi:nodetypes="cccccccc" />
      <path
         sodipodi:nodetypes="ccccccc"
         style="fill:#2b2b4c;fill-opacity:1;fill-rule:evenodd;stroke:#000000;stroke-width:0.36216989px;stroke-linecap:butt;stroke-linejoin:miter;stroke-opacity:1"
         d="m 207.4011,758.37959 c 17.29812,-0.72892 22.02366,-23.47992 1.39946,-14.47773 -23.91004,4.23768 -28.1138,38.10525 -13.60498,53.99273 15.71663,3.93744 23.50798,-5.40093 28.10213,-8.39664 6.25888,-8.83728 2.91098,-16.40598 -5.12027,-17.35984 -12.2893,5.66877 -14.96509,5.37179 -16.603,4.74189 -5.48683,-2.66505 1.11054,-14.16918 5.82666,-18.50041 z"
         id="path1098"
         inkscape:connector-curvature="0" />
      <path
         style="fill:#000000;fill-rule:evenodd;stroke:#ffffff;stroke-width:2.73766232;stroke-linecap:butt;stroke-linejoin:miter;stroke-miterlimit:4;stroke-dasharray:none;stroke-opacity:1"
         d="m 300.32544,727.43713 c 17.53371,14.08161 19.74629,30.8196 12.28161,53.67593 -0.79195,23.18063 -26.81218,43.64418 -47.81263,44.82224 -21.10185,6.91388 -43.70955,2.8998 -60.04631,-10.32656 -17.18283,-14.03169 -10.84847,-37.05872 8.49235,-26.62849 16.78342,11.41428 54.36684,10.93833 60.01455,-18.31222 7.62881,-16.37889 -7.8904,-46.7852 27.07043,-43.2309 z"
         id="path1100"
         inkscape:connector-curvature="0"
         sodipodi:nodetypes="ccccccc" />
      <path
         sodipodi:nodetypes="ccccccccccccc"
         inkscape:connector-curvature="0"
         id="path1102"
         d="m 212.87619,738.02259 c 49.50761,-2.55758 7.56151,13.54973 11.5298,18.92465 17.74223,-2.52448 35.9488,-7.20874 9.58794,14.74897 -0.34821,6.02767 25.89279,-4.76688 17.24324,6.99733 -3.94972,8.04955 -13.39584,20.31628 -1.95889,12.32445 17.73283,-11.66459 29.07723,-30.37723 47.75419,-40.82614 18.12272,-13.70063 25.05357,-37.11964 44.96849,-49.12227 23.02781,-15.71353 31.39946,-43.38062 42.39338,-67.54348 2.99993,-19.63612 -23.42008,8.48562 -33.51581,8.33946 -15.27203,9.8488 -22.52139,26.46938 -39.60069,33.14816 -17.53059,9.23159 -35.76871,17.1538 -44.42365,34.41052 -11.50127,13.84571 -19.57501,9.05057 -32.0551,21.77286 -3.31828,1.85547 -15.60991,-1.08867 -21.9229,6.82549 z"
         style="fill:#2b2b4c;fill-opacity:1;fill-rule:evenodd;stroke:#ffffff;stroke-width:1.36883116;stroke-linecap:butt;stroke-linejoin:miter;stroke-miterlimit:4;stroke-dasharray:none;stroke-opacity:1" />
      <path
         style="fill:#ffffff;fill-rule:evenodd;stroke:#000000;stroke-width:0.36216989px;stroke-linecap:butt;stroke-linejoin:miter;stroke-opacity:1"
         d="m 136.07142,644.73808 -7.18155,11.3393 -6.04762,6.80356 -10.20535,18.89881 16.25298,-19.27678 3.77975,-6.4256 z"
         id="path1104"
         inkscape:connector-curvature="0"
         sodipodi:nodetypes="ccccccc" />
      <g
         transform="translate(-65.011905,494.39285)"
         id="g1110"
         style="stroke:#ffffff;stroke-width:1.36883116;stroke-miterlimit:4;stroke-dasharray:none;stroke-opacity:1">
        <path
           style="fill:none;fill-rule:evenodd;stroke:#ffffff;stroke-width:1.36883116;stroke-linecap:butt;stroke-linejoin:miter;stroke-miterlimit:4;stroke-dasharray:none;stroke-opacity:1"
           d="m 292.17559,259.58035 c 7.28231,-10.16777 21.16937,-10.31938 30.67695,-17.38462 11.35931,-5.38916 16.43528,-17.72632 25.24858,-25.89737 7.12006,-5.25881 16.27869,-6.31399 23.82307,-10.76834 5.91492,-10.14109 15.08234,-18.2648 25.71307,-23.19624 11.75809,-10.0318 21.57744,-22.43845 35.02793,-30.3766 5.65091,-4.9887 8.37611,-13.60478 16.37053,-15.59706"
           id="path1106"
           inkscape:connector-curvature="0" />
        <path
           style="fill:none;fill-rule:evenodd;stroke:#ffffff;stroke-width:1.36883116;stroke-linecap:butt;stroke-linejoin:miter;stroke-miterlimit:4;stroke-dasharray:none;stroke-opacity:1"
           d="m 305.40475,275.83333 c 16.18165,-2.18889 27.38882,-15.21558 39.48564,-24.83381 7.87704,-6.46576 13.32891,-15.11793 19.74971,-22.89738 3.98278,-4.87682 7.16495,-10.88792 12.27711,-14.55612 10.72914,-4.3517 12.07408,-19.17549 23.38593,-22.63633 15.04417,-7.17039 26.15467,-20.69314 32.65257,-35.81413 3.01419,-5.89488 5.82258,-12.69531 12.63188,-14.94715 l 0.8023,-0.76448"
           id="path1108"
           inkscape:connector-curvature="0" />
      </g>
    </g>
  </g>
</svg>
